<svg width="560" height="315" viewBox="0 0 560 315" fill="none" xmlns="http://www.w3.org/2000/svg">
<rect width="560" height="315" fill="#ccc"/>
<g clip-path="url(#clip0_2133_4408)">
<rect x="108" y="34" width="343" height="247" rx="8" fill="white"/>
<path d="M266.498 65.296V76H264.242V65.296H260.226V63.232H270.514V65.296H266.498ZM274.698 62.992V65.264H272.362V62.992H274.698ZM274.586 66.48V76H272.474V66.48H274.586ZM277.767 66.48V63.728H279.879V66.48H282.551V68.416H279.879V73.008C279.879 73.824 279.975 74.32 281.095 74.32C281.575 74.32 282.135 74.24 282.407 74.208V76.128C282.119 76.16 281.431 76.256 280.615 76.256C277.767 76.256 277.767 74.56 277.767 73.136V68.416H276.631V66.48H277.767ZM288.196 74.064V76H287.156C284.836 76 284.596 75.04 284.596 73.392V62.64H286.708V73.248C286.708 73.728 286.756 74.064 287.524 74.064H288.196ZM298.34 71.92H291.716C291.78 72.544 291.956 74.384 294.612 74.384C296.004 74.384 296.82 74 297.588 73.6V75.648C297.108 75.84 296.084 76.256 294.516 76.256C290.516 76.256 289.62 73.232 289.62 71.312C289.62 68.304 291.444 66.224 294.036 66.224C295.076 66.224 296.98 66.608 297.876 68.816C298.292 69.808 298.356 70.976 298.34 71.92ZM291.748 70.304H296.244C296.004 68.16 294.42 68.064 294.004 68.064C293.652 68.064 292.036 68.144 291.748 70.304Z" fill="#16191F" fill-opacity="0.9"/>
<path d="M125.216 113.392H129.216C130.32 113.392 130.96 113.44 131.664 113.744C132.512 114.112 133.376 115.008 133.376 116.624C133.376 118.432 132.304 119.056 131.776 119.36C132.336 119.632 133.808 120.336 133.808 122.448C133.808 126 130.592 126 129.424 126H125.216V113.392ZM129.184 114.768H126.72V118.768H129.568C130 118.768 131.904 118.768 131.904 116.784C131.904 114.768 130.224 114.768 129.184 114.768ZM129.76 120.112H126.72V124.624H129.296C130.8 124.624 132.288 124.448 132.288 122.336C132.288 120.288 130.432 120.112 129.76 120.112ZM135.804 121.296C135.804 118.144 138.012 116.32 140.444 116.32C142.908 116.32 145.1 118.16 145.1 121.296C145.1 124.4 142.908 126.256 140.46 126.256C137.996 126.256 135.804 124.416 135.804 121.296ZM137.244 121.296C137.244 124.048 139.1 124.944 140.444 124.944C141.82 124.944 143.66 124.048 143.66 121.296C143.66 118.544 141.82 117.648 140.46 117.648C139.1 117.648 137.244 118.528 137.244 121.296ZM154.404 126V124.752C153.62 125.744 152.596 126.256 151.332 126.256C148.916 126.256 147.108 124.304 147.108 121.296C147.108 118.272 148.916 116.32 151.332 116.32C152.596 116.32 153.62 116.832 154.404 117.84V112.8H155.844V126H154.404ZM154.484 121.296C154.484 118.368 152.708 117.648 151.54 117.648C149.236 117.648 148.548 119.68 148.548 121.296C148.548 122.912 149.236 124.944 151.54 124.944C152.708 124.944 154.484 124.208 154.484 121.296ZM159.339 130.256L161.275 125.312L157.803 116.576H159.339L162.027 123.424L164.715 116.576H166.251L160.763 130.256H159.339Z" fill="#16191F" fill-opacity="0.9"/>
<rect x="124" y="157" width="311" height="48" rx="24" fill="#3959CC"/>
<path d="M231.072 174.104H244.896V187.96H231.072V174.104ZM242.912 175.96H233.04V186.04H242.912V175.96ZM234.352 177.368H241.568V184.568H234.352V177.368ZM239.76 179.016H236.128V182.888H239.76V179.016ZM262.392 180.424L261.544 182.44C260.392 182.136 259.656 181.864 258.552 181.352V182.216H250.616V181.448C249.448 182.008 248.712 182.248 247.624 182.456L246.776 180.536C249.368 180.04 251.496 179.24 253.56 177.464H254.632L253.736 176.76C253.976 176.568 254.104 176.44 254.296 176.232H252.184C252.488 176.808 252.6 177.112 252.744 177.496L250.808 177.976C250.712 177.624 250.424 176.792 250.152 176.232H249.928C249.4 176.904 248.952 177.416 248.056 178.152L246.808 176.552C247.784 175.816 248.872 174.696 249.528 173.288L251.48 173.624C251.336 174.008 251.256 174.168 251.096 174.504H254.376V176.152C254.552 175.96 255.496 174.92 256.056 173.304L257.992 173.64C257.912 173.928 257.848 174.136 257.688 174.504H262.136V176.232H259.336C259.608 176.664 259.752 176.936 260.024 177.56L258.104 178.12C257.848 177.48 257.592 176.872 257.224 176.232H256.744C256.408 176.728 256.12 177.144 255.72 177.56C257.608 179.384 261.432 180.216 262.392 180.424ZM252.12 180.632H257.144C255.688 179.8 255.208 179.384 254.6 178.808C254.008 179.464 253.496 179.8 252.12 180.632ZM260.504 183V188.136H248.696V183H260.504ZM258.472 186.424V184.664H250.728V186.424H258.472ZM270.592 175.368H276.736V177.176H270C269.712 177.912 269.536 178.28 269.184 178.904C270.192 178.392 270.592 178.2 271.36 178.2C272.816 178.2 273.488 178.84 273.84 179.832C275.84 179.08 276.736 178.76 277.6 178.52L278.032 180.504C277.184 180.696 275.968 181 274.176 181.624C274.192 181.96 274.24 182.456 274.24 183.224C274.24 183.752 274.224 184.12 274.208 184.392H272.192C272.272 183.464 272.256 182.792 272.24 182.424C270.592 183.176 269.92 183.88 269.92 184.6C269.92 185.768 271.296 185.768 273.024 185.768C273.312 185.768 275.328 185.768 277.104 185.56L277.136 187.56C275.872 187.624 274.592 187.672 273.568 187.672C271.312 187.672 267.76 187.592 267.76 184.84C267.76 182.664 270.48 181.32 271.968 180.616C271.856 180.328 271.68 179.864 270.784 179.864C270.336 179.864 269.296 180.024 267.968 181.336C267.632 181.816 266.4 183.512 265.792 184.12L264.352 182.632C265.856 181.176 266.976 179.608 267.872 177.176H264.912V175.368H268.416C268.56 174.744 268.624 174.408 268.72 173.768L270.928 173.88C270.816 174.488 270.736 174.792 270.592 175.368ZM280.296 182.04L280.184 180.2C280.856 180.2 280.936 180.2 281.176 180.184C281.64 179.544 281.864 179.224 282.024 179C281.912 178.856 281.288 178.008 280.088 177.096L280.952 175.448C281.24 175.672 281.288 175.72 281.352 175.768C282.184 174.248 282.376 173.784 282.552 173.384L284.28 173.864C283.592 175.288 282.744 176.552 282.504 176.888C282.648 177.032 282.792 177.176 283.064 177.48C284.152 175.832 284.408 175.336 284.568 175L286.056 175.64V174.424H289.608V173.416H291.576V174.424H295.304V176.184H291.576V177.192H294.808V178.808H286.536V177.192H289.608V176.184H286.056V175.864C285.528 176.84 284.776 177.848 283.112 180.104C283.32 180.088 284.344 180.04 284.584 180.024C284.44 179.56 284.376 179.368 284.264 179.048L285.544 178.552C285.88 179.32 286.04 179.768 286.28 180.616V179.672H294.968V182.792H293.176V181.288H288.008V182.792H286.28V181.848L285.096 182.216C285.016 181.752 285 181.704 284.968 181.576C284.856 181.592 284.792 181.608 284.216 181.672V188.456H282.536V181.832C282.232 181.864 280.472 182.024 280.296 182.04ZM290.824 186.952V181.976H292.648V186.168C292.648 186.472 292.696 186.504 292.968 186.504H293.48C293.704 186.504 293.752 186.344 293.768 186.232C293.816 185.912 293.832 184.872 293.832 184.472L295.32 184.888C295.304 187.128 295.304 188.312 294.072 188.312H291.976C290.824 188.312 290.824 187.336 290.824 186.952ZM286.584 188.472L285.416 186.84C287.816 185.96 288.056 184.584 288.2 181.976H290.008C289.896 185.672 289.032 187.336 286.584 188.472ZM280.648 182.728L282.088 182.872C281.96 185.816 281.8 186.6 281.56 187.48L280.072 186.696C280.248 186.184 280.568 185.24 280.648 182.728ZM284.616 182.808L285.912 182.616C286.184 183.832 286.28 184.68 286.36 185.88L284.904 186.152C284.904 185.624 284.904 184.504 284.616 182.808ZM306.8 179.224H301.648V177.224H306.752C306.752 176.728 306.688 174.568 306.688 174.12H308.88C308.896 175 308.912 176.456 308.928 177.224H311.36V179.224H308.96C308.992 183.368 309.024 186.936 303.408 187.832L302.512 185.864C306.384 185.208 306.896 184.008 306.8 179.224ZM298.512 174.2L300.656 174.344C300.464 175.496 300.112 177.768 300.112 181.032C300.112 183 300.24 185.128 300.72 187.144L298.512 187.432C298.352 186.616 297.984 184.792 297.984 181.368C297.984 178.008 298.336 175.416 298.512 174.2ZM324.744 174.344V176.008C323.88 176.6 322.184 177.928 320.92 178.92C321.672 178.712 322.408 178.6 322.952 178.6C324.856 178.6 327.32 179.656 327.32 182.808C327.32 185.88 324.84 187.736 321.416 187.736C318.456 187.736 317.128 186.36 317.128 184.936C317.128 183.528 318.392 182.44 320.088 182.44C321.544 182.44 323.304 183.304 323.944 185.208C324.872 184.632 325.224 183.688 325.224 182.872C325.224 181.4 324.232 180.328 322.088 180.328C319.608 180.328 317.784 181.672 315.352 183.976L314.152 182.184C314.808 181.704 317.608 179.56 321.272 176.344C319.56 176.456 317.928 176.536 315.896 176.568V174.504C319.4 174.52 320.952 174.504 324.744 174.344ZM322.248 185.96C321.848 184.792 321.144 184.088 320.04 184.088C319.384 184.088 318.984 184.504 318.984 184.84C318.984 185.592 319.88 186.072 321.224 186.072C321.768 186.072 322.104 185.992 322.248 185.96Z" fill="white"/>
<path d="M256.524 233.864H262.78V239.368H258.38V248.456H256.524V233.864ZM264.14 233.864H270.476V247.128C270.476 248.008 269.932 248.456 269.084 248.456H266.828L266.428 246.504H268.204C268.524 246.504 268.636 246.44 268.636 246.088V239.368H264.14V233.864ZM258.38 235.24V236.088H261.004V235.24H258.38ZM265.932 235.24V236.088H268.636V235.24H265.932ZM258.38 237.208V238.088H261.004V237.208H258.38ZM265.932 237.208V238.088H268.636V237.208H265.932ZM262.876 242.568H258.892V240.872H263.964V239.752H265.788V240.872H268.14V242.568H265.788V246.744C265.788 247.576 265.276 248.088 264.444 248.088H262.124L261.868 246.296H263.58C263.852 246.296 263.964 246.264 263.964 245.928V243.592C262.908 244.984 261.02 246.632 259.436 247.4L258.444 245.736C260.156 245 261.708 244.04 262.876 242.568ZM281.74 234.76L282.94 233.944C283.788 234.824 284.444 235.816 285.052 236.872L283.788 237.752C283.1 236.504 282.668 235.832 281.74 234.76ZM274.62 234.184L276.956 234.216C276.876 235.8 276.828 237.4 276.796 238.984C276.764 240.024 276.732 241.08 276.732 242.12C276.732 244.2 277.02 245.624 279.468 245.624C281.1 245.624 282.476 245 283.26 243.512C283.708 242.648 283.932 241.528 284.092 240.584L286.092 241.464C285.772 243.128 285.26 244.696 284.092 245.944C282.828 247.304 281.164 247.688 279.388 247.688C278.028 247.688 276.684 247.416 275.692 246.408C274.636 245.32 274.54 243.48 274.54 242.024C274.54 239.416 274.604 236.792 274.62 234.184ZM279.58 236.056L280.796 235.272C281.628 236.2 282.236 237.16 282.828 238.248L281.548 239.096C280.908 237.832 280.476 237.144 279.58 236.056ZM290.396 234.504C291.1 234.504 291.804 234.52 292.492 234.52C294.748 234.52 296.988 234.44 299.244 234.344V236.008C298.236 236.696 296.428 238.12 295.42 238.92C296.092 238.744 296.748 238.6 297.452 238.6C298.78 238.6 300.252 239.128 301.052 240.232C301.58 240.968 301.82 241.912 301.82 242.808C301.82 246.184 298.94 247.736 295.916 247.736C294.7 247.736 293.436 247.512 292.492 246.728C291.964 246.28 291.628 245.608 291.628 244.936C291.628 243.336 293.132 242.44 294.588 242.44C296.332 242.44 297.884 243.544 298.444 245.208C299.26 244.696 299.724 243.848 299.724 242.872C299.724 241.016 298.236 240.312 296.604 240.312C293.804 240.312 291.756 242.168 289.852 243.976L288.652 242.184C291.116 240.36 293.468 238.376 295.772 236.344C293.98 236.472 292.188 236.52 290.396 236.568V234.504ZM296.748 245.96C296.556 245.416 296.38 245.016 295.948 244.616C295.564 244.28 295.052 244.088 294.54 244.088C293.964 244.088 293.484 244.44 293.484 244.84C293.484 245.864 294.972 246.056 295.724 246.056C296.076 246.056 296.412 246.04 296.748 245.96Z" fill="#3959CC"/>
</g>
<rect x="108.5" y="34.5" width="342" height="246" rx="7.5" stroke="#16191F" stroke-opacity="0.18"/>
<defs>
<clipPath id="clip0_2133_4408">
<rect x="108" y="34" width="343" height="247" rx="8" fill="white"/>
</clipPath>
</defs>
</svg>
