<svg width="560" height="315" viewBox="0 0 560 315" fill="none" xmlns="http://www.w3.org/2000/svg">
    <rect width="560" height="315" fill="#f2f6fd"/>
    <path d="M146.442 177.391C144.989 175.393 143.814 173.207 142.95 170.892C142.71 170.248 142.285 169.688 141.728 169.285L134.547 164.089C132.52 162.619 130.886 160.672 129.789 158.42C128.693 156.168 128.168 153.681 128.261 151.178C128.354 148.675 129.063 146.234 130.324 144.07C131.585 141.906 133.359 140.086 135.491 138.771C136.044 138.435 136.447 137.9 136.615 137.275C136.783 136.65 136.703 135.985 136.392 135.417C136.228 135.131 136.009 134.881 135.747 134.682C135.485 134.482 135.185 134.337 134.866 134.255C134.547 134.174 134.215 134.157 133.889 134.206C133.563 134.255 133.251 134.369 132.97 134.541C130.139 136.275 127.781 138.68 126.103 141.544C124.424 144.407 123.479 147.641 123.349 150.957C123.219 154.274 123.909 157.571 125.359 160.557C126.808 163.543 128.971 166.125 131.657 168.075L146.786 179.022C146.853 179.071 146.936 179.094 147.019 179.087C147.101 179.08 147.179 179.044 147.238 178.986C147.296 178.927 147.332 178.849 147.339 178.766C147.345 178.684 147.322 178.601 147.273 178.534L146.442 177.391Z" fill="#3959CC"/>
    <path d="M147.698 143.663C147.733 143.622 147.758 143.574 147.771 143.521C147.784 143.469 147.785 143.415 147.774 143.362C147.762 143.31 147.739 143.26 147.706 143.218C147.672 143.176 147.629 143.142 147.581 143.119C146.318 142.516 144.935 142.206 143.536 142.213C142.03 142.214 140.545 142.571 139.203 143.253C137.861 143.936 136.698 144.926 135.811 146.142C134.327 148.183 133.715 150.73 134.107 153.222C134.499 155.715 135.863 157.95 137.901 159.437L137.905 159.44L140.683 161.45C140.735 161.487 140.796 161.51 140.861 161.514C140.925 161.519 140.989 161.506 141.046 161.477C141.103 161.447 141.151 161.403 141.185 161.348C141.218 161.293 141.236 161.23 141.236 161.165C141.276 154.755 143.563 148.561 147.698 143.663Z" fill="#3959CC"/>
    <path d="M141.084 136.87C142.626 136.87 143.875 135.621 143.875 134.079C143.875 132.537 142.626 131.288 141.084 131.288C139.542 131.288 138.293 132.537 138.293 134.079C138.293 135.621 139.542 136.87 141.084 136.87Z" fill="#3959CC"/>
    <path d="M164.317 133.558L153.882 141.139C148.528 145.03 144.938 150.887 143.903 157.424C142.867 163.961 144.471 170.641 148.361 175.996L154.385 184.286C154.813 184.875 155.353 185.375 155.974 185.755C156.595 186.136 157.284 186.39 158.004 186.504C158.723 186.618 159.458 186.589 160.166 186.419C160.874 186.249 161.541 185.941 162.131 185.513L188.268 166.523C192.64 163.347 195.57 158.564 196.416 153.228C197.261 147.891 195.952 142.437 192.775 138.065C189.599 133.694 184.817 130.763 179.48 129.918C174.143 129.072 168.689 130.382 164.317 133.558Z" fill="#3959CC"/>
    <path d="M147.506 137.003C149.17 137.456 150.745 138.189 152.164 139.17C152.223 139.211 152.293 139.233 152.365 139.233C152.437 139.232 152.507 139.209 152.565 139.167C153.347 138.598 156.172 136.544 156.172 136.544C156.217 136.511 156.253 136.469 156.278 136.42C156.303 136.37 156.316 136.316 156.316 136.261C156.316 136.205 156.303 136.151 156.278 136.102C156.252 136.053 156.216 136.01 156.171 135.978L155.397 135.422C153.38 133.95 151.107 132.866 148.694 132.224C148.376 132.14 148.043 132.12 147.717 132.167C147.391 132.213 147.077 132.324 146.795 132.494C146.513 132.664 146.267 132.889 146.073 133.155C145.879 133.422 145.741 133.724 145.666 134.045C145.532 134.68 145.649 135.343 145.992 135.894C146.335 136.445 146.877 136.842 147.506 137.003Z" fill="#3959CC"/>
    <path fill-rule="evenodd" clip-rule="evenodd" d="M260 134.667C260 136.508 258.508 138 256.667 138L253.333 138L253.333 144.667C253.333 148.412 254.39 150.783 255.871 152.231C257.366 153.691 259.758 154.667 263.333 154.667C266.832 154.667 269.239 153.63 270.768 152.101C272.297 150.572 273.333 148.165 273.333 144.667V138H270C268.159 138 266.667 136.508 266.667 134.667C266.667 132.826 268.159 131.333 270 131.333H276.667C276.782 131.333 276.895 131.339 277.007 131.351C278.688 131.521 280 132.941 280 134.667V144.667C280 149.502 278.536 153.761 275.482 156.815C273.152 159.146 270.12 160.55 266.667 161.085L266.667 165.619C266.667 169.785 267.875 173.735 270.247 176.579C272.544 179.333 276.16 181.333 281.667 181.333C287.174 181.333 290.789 179.333 293.086 176.579C295.087 174.18 296.259 170.995 296.578 167.557C290.872 166.046 286.667 160.847 286.667 154.667C286.667 147.303 292.636 141.333 300 141.333C307.364 141.333 313.333 147.303 313.333 154.667C313.333 160.905 309.049 166.143 303.263 167.598C302.924 172.325 301.351 177.078 298.205 180.849C294.544 185.239 288.993 188 281.667 188C274.34 188 268.789 185.239 265.128 180.85C261.542 176.551 260 170.977 260 165.619L260 161.101C256.591 160.603 253.559 159.293 251.212 156.999C248.11 153.967 246.667 149.672 246.667 144.667V134.667C246.667 133.74 247.045 132.901 247.656 132.297C247.841 132.114 248.048 131.952 248.272 131.816C248.684 131.565 249.155 131.402 249.659 131.351C249.771 131.339 249.885 131.333 250 131.333H256.667C258.508 131.333 260 132.826 260 134.667ZM300 161.333C303.682 161.333 306.667 158.349 306.667 154.667C306.667 150.985 303.682 148 300 148C296.318 148 293.333 150.985 293.333 154.667C293.333 158.349 296.318 161.333 300 161.333Z" fill="#3959CC"/>
    <path fill-rule="evenodd" clip-rule="evenodd" d="M385 134.667C378.736 134.667 373.333 139.604 373.333 148C373.333 153.343 377.148 160.032 383.095 166.595C388.342 172.384 394.742 177.52 400 180.785C405.258 177.52 411.658 172.384 416.905 166.595C422.852 160.032 426.667 153.343 426.667 148C426.667 139.604 421.264 134.667 415 134.667C412.836 134.667 410.69 135.743 408.502 137.749C406.317 139.752 404.418 142.382 402.773 144.849C402.155 145.776 401.115 146.333 400 146.333C398.885 146.333 397.845 145.776 397.226 144.849C395.582 142.382 393.683 139.752 391.498 137.749C389.31 135.743 387.164 134.667 385 134.667ZM366.667 148C366.667 136.396 374.597 128 385 128C389.503 128 393.19 130.257 396.002 132.834C397.489 134.197 398.823 135.734 400 137.254C401.177 135.734 402.511 134.197 403.998 132.834C406.81 130.257 410.497 128 415 128C425.403 128 433.333 136.396 433.333 148C433.333 155.99 427.981 164.301 421.845 171.072C415.573 177.993 407.799 184.05 401.654 187.561C400.629 188.146 399.371 188.146 398.346 187.561C392.201 184.05 384.427 177.993 378.155 171.072C372.019 164.301 366.667 155.99 366.667 148Z" fill="#3959CC"/>
</svg>
